<svg t="1567258242096" class="icon" viewBox="0 0 1024 1024" version="1.1" xmlns="http://www.w3.org/2000/svg" p-id="7057" width="200" height="200"><path d="M264.2 527.6 191 785.9c-3.5 12.5-0.1 25.9 9 35.2 6.7 6.8 16.1 10.7 25.6 10.7 3.2 0 6.4-0.4 9.4-1.2l260.9-70.5c6.1-1.6 11.6-4.9 16.1-9.3l490.7-490.7c6.8-6.8 10.6-15.9 10.6-25.5s-3.8-18.7-10.6-25.5L815.1 21.2c-6.8-6.8-15.9-10.6-25.5-10.6-9.6 0-18.7 3.8-25.5 10.6L273.4 512C269.1 516.3 265.9 521.7 264.2 527.6zM318.5 570.8 453 705.3l-187 50.6L318.5 570.8zM789.6 86.3l148.2 148.2L505.3 667.1 357 518.8 789.6 86.3z" p-id="7058" fill="#2391F7"></path><path d="M992 613.5c-17.7 0-32 14.3-32 32l0 205.5c0 60.1-49 109-109.2 109L173.7 960c-60.2 0-109.2-48.9-109.2-109L64.5 162.9c5.1-51.2 47.4-93.3 98.8-98.4L515 64.5c17.7 0 32-14.3 32-32 0-17.7-14.3-32-32-32L205.7 0.5l0-0.5-32 0c-45.8 0-89.2 18.1-122.3 51C18.3 84 0 127.4 0 173.2l0 32 0.5 0 0 645.8c0 95.4 77.7 173 173.2 173l677.2 0c46 0 89.4-18 122.2-50.7 32.8-32.8 50.9-76.2 50.9-122.2L1024 645.5C1024 627.9 1009.7 613.5 992 613.5z" p-id="7059" fill="#2391F7"></path></svg>