<svg t="1567258376819" class="icon" viewBox="0 0 1024 1024" version="1.1" xmlns="http://www.w3.org/2000/svg" p-id="8713" width="200" height="200"><path d="M794.208 13.664A31.968 31.968 0 0 0 768 0H32a32 32 0 0 0-32 32v960a32 32 0 0 0 32 32h960a32 32 0 0 0 32-32V352a31.872 31.872 0 0 0-5.792-18.336l-224-320zM224 64h384v224H224V64z m576 896H224V640h576v320z m160 0h-96V608a32 32 0 0 0-32-32H192a32 32 0 0 0-32 32v352H64V64h96v256a32 32 0 0 0 32 32h448a32 32 0 0 0 32-32V64h79.328L960 362.08V960z" p-id="8714" fill="#2391F7"></path><path d="M512 96a32 32 0 0 0-32 32v96a32 32 0 1 0 64 0V128a32 32 0 0 0-32-32zM352 832h320a32 32 0 1 0 0-64H352a32 32 0 1 0 0 64z" p-id="8715" fill="#2391F7"></path></svg>