<?xml version="1.0" encoding="utf-8"?>
<svg version="1.1" xmlns:xlink="http://www.w3.org/1999/xlink" width="12px" height="12px" viewBox="1036 796.5  12 12" xmlns="http://www.w3.org/2000/svg">
  <path d="M 1042 796.5  C 1045.36 796.5  1048 799.14  1048 802.5  C 1048 805.86  1045.36 808.5  1042 808.5  C 1038.64 808.5  1036 805.86  1036 802.5  C 1036 799.14  1038.64 796.5  1042 796.5  Z " fill-rule="nonzero" fill="#ffffff" stroke="none" />
  <path d="M 1042 797  C 1045.08 797  1047.5 799.42  1047.5 802.5  C 1047.5 805.58  1045.08 808  1042 808  C 1038.92 808  1036.5 805.58  1036.5 802.5  C 1036.5 799.42  1038.92 797  1042 797  Z " stroke-width="1" stroke="#797979" fill="none" />
  <path d="M 1042 805.5  C 1040.32 805.5  1039 804.18  1039 802.5  C 1039 800.82  1040.32 799.5  1042 799.5  C 1043.68 799.5  1045 800.82  1045 802.5  C 1045 804.18  1043.68 805.5  1042 805.5  " fill-rule="nonzero" fill="#797979" stroke="none" />
</svg>