<?xml version="1.0" encoding="utf-8"?>
<svg version="1.1" xmlns:xlink="http://www.w3.org/1999/xlink" width="12px" height="12px" viewBox="936 796.5  12 12" xmlns="http://www.w3.org/2000/svg">
  <path d="M 942 796.5  C 945.36 796.5  948 799.14  948 802.5  C 948 805.86  945.36 808.5  942 808.5  C 938.64 808.5  936 805.86  936 802.5  C 936 799.14  938.64 796.5  942 796.5  Z " fill-rule="nonzero" fill="#ffffff" stroke="none" />
  <path d="M 942 797  C 945.08 797  947.5 799.42  947.5 802.5  C 947.5 805.58  945.08 808  942 808  C 938.92 808  936.5 805.58  936.5 802.5  C 936.5 799.42  938.92 797  942 797  Z " stroke-width="1" stroke="#797979" fill="none" />
  <path d="M 942 805.5  C 940.32 805.5  939 804.18  939 802.5  C 939 800.82  940.32 799.5  942 799.5  C 943.68 799.5  945 800.82  945 802.5  C 945 804.18  943.68 805.5  942 805.5  " fill-rule="nonzero" fill="#797979" stroke="none" />
</svg>