<?xml version="1.0" encoding="utf-8"?>
<svg version="1.1" xmlns:xlink="http://www.w3.org/1999/xlink" width="23px" height="22px" xmlns="http://www.w3.org/2000/svg">
  <g transform="matrix(1 0 0 1 -337 -90 )">
    <path d="M 11.716796875 0.20751953125  C 17.63525390625 0.20751953125  22.53271484375 5.0966796875  22.53271484375 11.01513671875  C 22.53271484375 16.93359375  17.6435546875 21.82275390625  11.72509765625 21.82275390625  C 5.806640625 21.82275390625  0.91748046875 16.93359375  0.91748046875 11.01513671875  C 0.91748046875 5.0966796875  5.79833984375 0.20751953125  11.716796875 0.20751953125  Z M 6.37939453125 12.119140625  C 6.37939453125 12.119140625  9.58349609375 16.00390625  9.58349609375 16.00390625  C 9.8408203125 16.3193359375  10.08984375 16.44384765625  10.39697265625 16.44384765625  C 10.7041015625 16.44384765625  10.9697265625 16.302734375  11.1689453125 15.99560546875  C 11.1689453125 15.99560546875  16.7470703125 7.2548828125  16.7470703125 7.2548828125  C 16.87158203125 7.072265625  16.9794921875 6.84814453125  16.9794921875 6.64892578125  C 16.9794921875 6.208984375  16.58935546875 5.93505859375  16.1826171875 5.93505859375  C 15.94189453125 5.93505859375  15.701171875 6.076171875  15.5185546875 6.3583984375  C 15.5185546875 6.3583984375  10.35546875 14.56787109375  10.35546875 14.56787109375  C 10.35546875 14.56787109375  7.60791015625 11.123046875  7.60791015625 11.123046875  C 7.39208984375 10.84912109375  7.16796875 10.74951171875  6.90234375 10.74951171875  C 6.49560546875 10.74951171875  6.1552734375 11.0732421875  6.1552734375 11.51318359375  C 6.1552734375 11.720703125  6.23828125 11.94482421875  6.37939453125 12.119140625  Z " fill-rule="nonzero" fill="#0091ff" stroke="none" transform="matrix(1 0 0 1 337 90 )" />
  </g>
</svg>