<?xml version="1.0" encoding="utf-8"?>
<svg version="1.1" xmlns:xlink="http://www.w3.org/1999/xlink" width="300px" height="170px" xmlns="http://www.w3.org/2000/svg">
  <g transform="matrix(1 0 0 1 -38 -716 )">
    <path d="M 38 716  L 338 716  L 338 886  L 38 886  L 38 716  " fill-rule="nonzero" fill="#cccccc" stroke="none" />
    <path d="M 50 728  L 326 728  L 326 874  L 50 874  L 50 728  " fill-rule="nonzero" fill="#ffffff" stroke="none" />
    <path d="M 206.75 767  C 199.61 767  194 761.39  194 754.25  C 194 747.11  199.61 741.5  206.75 741.5  C 213.89 741.5  219.5 747.11  219.5 754.25  C 219.5 761.39  213.89 767  206.75 767  " fill-rule="nonzero" fill="#cccccc" stroke="none" />
    <path d="M 55 870  L 55 794.65  L 121.75 760.4  L 215.2 823.42  L 268.6 780.95  L 322 823.42  L 322 870  L 55 870  " fill-rule="nonzero" fill="#169bd5" stroke="none" />
  </g>
</svg>