<svg t="1566820047909" class="icon" viewBox="0 0 1024 1024" version="1.1" xmlns="http://www.w3.org/2000/svg" p-id="2189" width="200" height="200"><path d="M104.056937 234.811934l809.254078 0c22.343891 0 40.46255-18.11559 40.46255-40.46255 0-22.347984-18.119683-40.46255-40.46255-40.46255L104.056937 153.886833c-22.347984 0-40.46255 18.11559-40.46255 40.46255C63.594387 216.696344 81.708953 234.811934 104.056937 234.811934zM913.311015 477.587236 104.056937 477.587236c-22.347984 0-40.46255 18.11559-40.46255 40.46255 0 22.343891 18.11559 40.46255 40.46255 40.46255l809.254078 0c22.343891 0 40.46255-18.119683 40.46255-40.46255C953.773566 495.702825 935.653883 477.587236 913.311015 477.587236zM913.311015 801.289686 104.056937 801.289686c-22.347984 0-40.46255 18.11559-40.46255 40.46255 0 22.347984 18.11559 40.46255 40.46255 40.46255l809.254078 0c22.343891 0 40.46255-18.11559 40.46255-40.46255C953.773566 819.404252 935.653883 801.289686 913.311015 801.289686z" p-id="2190" fill="#ffffff"></path></svg>