<?xml version="1.0" encoding="utf-8"?>
<svg version="1.1" xmlns:xlink="http://www.w3.org/1999/xlink" width="246px" height="148px" xmlns="http://www.w3.org/2000/svg">
  <g transform="matrix(1 0 0 1 -90 -8 )">
    <path d="M 90 8  L 336 8  L 336 156  L 90 156  L 90 8  " fill-rule="nonzero" fill="#cccccc" stroke="none" />
    <path d="M 100 18  L 326 18  L 326 146  L 100 146  L 100 18  " fill-rule="nonzero" fill="#ffffff" stroke="none" />
    <path d="M 229.02 52.4  C 222.804 52.4  217.92 47.516  217.92 41.3  C 217.92 35.084  222.804 30.2  229.02 30.2  C 235.236 30.2  240.12 35.084  240.12 41.3  C 240.12 47.516  235.236 52.4  229.02 52.4  " fill-rule="nonzero" fill="#cccccc" stroke="none" />
    <path d="M 104 143  L 104 76.45  L 158.75 46.2  L 235.4 99.3219512195122  L 279.2 64.35  L 323 99.3219512195122  L 323 143  L 104 143  " fill-rule="nonzero" fill="#169bd5" stroke="none" />
  </g>
</svg>