<?xml version="1.0" encoding="utf-8"?>
<svg version="1.1" xmlns:xlink="http://www.w3.org/1999/xlink" width="18px" height="18px" viewBox="1024 371.5  18 18" xmlns="http://www.w3.org/2000/svg">
  <path d="M 1024.5 375.5  A 3.5 3.5 0 0 1 1028 372 L 1038 372  A 3.5 3.5 0 0 1 1041.5 375.5 L 1041.5 385.5  A 3.5 3.5 0 0 1 1038 389 L 1028 389  A 3.5 3.5 0 0 1 1024.5 385.5 L 1024.5 375.5  Z " fill-rule="nonzero" fill="#f0f0f0" stroke="none" />
  <path d="M 1024.5 375.5  A 3.5 3.5 0 0 1 1028 372 L 1038 372  A 3.5 3.5 0 0 1 1041.5 375.5 L 1041.5 385.5  A 3.5 3.5 0 0 1 1038 389 L 1028 389  A 3.5 3.5 0 0 1 1024.5 385.5 L 1024.5 375.5  Z " stroke-width="1" stroke="#797979" fill="none" />
</svg>