<?xml version="1.0" encoding="utf-8"?>
<svg version="1.1" xmlns:xlink="http://www.w3.org/1999/xlink" width="18px" height="18px" viewBox="670 371.5  18 18" xmlns="http://www.w3.org/2000/svg">
  <path d="M 670.5 375.5  A 3.5 3.5 0 0 1 674 372 L 684 372  A 3.5 3.5 0 0 1 687.5 375.5 L 687.5 385.5  A 3.5 3.5 0 0 1 684 389 L 674 389  A 3.5 3.5 0 0 1 670.5 385.5 L 670.5 375.5  Z " fill-rule="nonzero" fill="#ffffff" stroke="none" />
  <path d="M 670.5 375.5  A 3.5 3.5 0 0 1 674 372 L 684 372  A 3.5 3.5 0 0 1 687.5 375.5 L 687.5 385.5  A 3.5 3.5 0 0 1 684 389 L 674 389  A 3.5 3.5 0 0 1 670.5 385.5 L 670.5 375.5  Z " stroke-width="1" stroke="#797979" fill="none" />
  <path d="M 673.857142857143 380.5  L 677.714285714286 384.357142857143  L 684.142857142857 375.357142857143  " stroke-width="3.85714285714286" stroke="#797979" fill="none" />
</svg>