<?xml version="1.0" encoding="utf-8"?>
<svg version="1.1" xmlns:xlink="http://www.w3.org/1999/xlink" width="18px" height="18px" viewBox="464 273.5  18 18" xmlns="http://www.w3.org/2000/svg">
  <path d="M 464.5 277.5  A 3.5 3.5 0 0 1 468 274 L 478 274  A 3.5 3.5 0 0 1 481.5 277.5 L 481.5 287.5  A 3.5 3.5 0 0 1 478 291 L 468 291  A 3.5 3.5 0 0 1 464.5 287.5 L 464.5 277.5  Z " fill-rule="nonzero" fill="#f0f0f0" stroke="none" />
  <path d="M 464.5 277.5  A 3.5 3.5 0 0 1 468 274 L 478 274  A 3.5 3.5 0 0 1 481.5 277.5 L 481.5 287.5  A 3.5 3.5 0 0 1 478 291 L 468 291  A 3.5 3.5 0 0 1 464.5 287.5 L 464.5 277.5  Z " stroke-width="1" stroke="#797979" fill="none" />
</svg>