<?xml version="1.0" encoding="utf-8"?>
<svg version="1.1" xmlns:xlink="http://www.w3.org/1999/xlink" width="18px" height="18px" viewBox="670 567.5  18 18" xmlns="http://www.w3.org/2000/svg">
  <path d="M 670.5 571.5  A 3.5 3.5 0 0 1 674 568 L 684 568  A 3.5 3.5 0 0 1 687.5 571.5 L 687.5 581.5  A 3.5 3.5 0 0 1 684 585 L 674 585  A 3.5 3.5 0 0 1 670.5 581.5 L 670.5 571.5  Z " fill-rule="nonzero" fill="#f0f0f0" stroke="none" />
  <path d="M 670.5 571.5  A 3.5 3.5 0 0 1 674 568 L 684 568  A 3.5 3.5 0 0 1 687.5 571.5 L 687.5 581.5  A 3.5 3.5 0 0 1 684 585 L 674 585  A 3.5 3.5 0 0 1 670.5 581.5 L 670.5 571.5  Z " stroke-width="1" stroke="#797979" fill="none" />
</svg>