<?xml version="1.0" encoding="utf-8"?>
<svg version="1.1" xmlns:xlink="http://www.w3.org/1999/xlink" width="18px" height="18px" viewBox="493 371.5  18 18" xmlns="http://www.w3.org/2000/svg">
  <path d="M 493.5 375.5  A 3.5 3.5 0 0 1 497 372 L 507 372  A 3.5 3.5 0 0 1 510.5 375.5 L 510.5 385.5  A 3.5 3.5 0 0 1 507 389 L 497 389  A 3.5 3.5 0 0 1 493.5 385.5 L 493.5 375.5  Z " fill-rule="nonzero" fill="#ffffff" stroke="none" />
  <path d="M 493.5 375.5  A 3.5 3.5 0 0 1 497 372 L 507 372  A 3.5 3.5 0 0 1 510.5 375.5 L 510.5 385.5  A 3.5 3.5 0 0 1 507 389 L 497 389  A 3.5 3.5 0 0 1 493.5 385.5 L 493.5 375.5  Z " stroke-width="1" stroke="#797979" fill="none" />
  <path d="M 496.857142857143 380.5  L 500.714285714286 384.357142857143  L 507.142857142857 375.357142857143  " stroke-width="3.85714285714286" stroke="#797979" fill="none" />
</svg>