<?xml version="1.0" encoding="utf-8"?>
<svg version="1.1" xmlns:xlink="http://www.w3.org/1999/xlink" width="18px" height="18px" viewBox="670 665.5  18 18" xmlns="http://www.w3.org/2000/svg">
  <path d="M 670.5 669.5  A 3.5 3.5 0 0 1 674 666 L 684 666  A 3.5 3.5 0 0 1 687.5 669.5 L 687.5 679.5  A 3.5 3.5 0 0 1 684 683 L 674 683  A 3.5 3.5 0 0 1 670.5 679.5 L 670.5 669.5  Z " fill-rule="nonzero" fill="#ffffff" stroke="none" />
  <path d="M 670.5 669.5  A 3.5 3.5 0 0 1 674 666 L 684 666  A 3.5 3.5 0 0 1 687.5 669.5 L 687.5 679.5  A 3.5 3.5 0 0 1 684 683 L 674 683  A 3.5 3.5 0 0 1 670.5 679.5 L 670.5 669.5  Z " stroke-width="1" stroke="#797979" fill="none" />
  <path d="M 673.857142857143 674.5  L 677.714285714286 678.357142857143  L 684.142857142857 669.357142857143  " stroke-width="3.85714285714286" stroke="#797979" fill="none" />
</svg>