<?xml version="1.0" encoding="utf-8"?>
<svg version="1.1" xmlns:xlink="http://www.w3.org/1999/xlink" width="18px" height="18px" viewBox="1024 665.5  18 18" xmlns="http://www.w3.org/2000/svg">
  <path d="M 1024.5 669.5  A 3.5 3.5 0 0 1 1028 666 L 1038 666  A 3.5 3.5 0 0 1 1041.5 669.5 L 1041.5 679.5  A 3.5 3.5 0 0 1 1038 683 L 1028 683  A 3.5 3.5 0 0 1 1024.5 679.5 L 1024.5 669.5  Z " fill-rule="nonzero" fill="#ffffff" stroke="none" />
  <path d="M 1024.5 669.5  A 3.5 3.5 0 0 1 1028 666 L 1038 666  A 3.5 3.5 0 0 1 1041.5 669.5 L 1041.5 679.5  A 3.5 3.5 0 0 1 1038 683 L 1028 683  A 3.5 3.5 0 0 1 1024.5 679.5 L 1024.5 669.5  Z " stroke-width="1" stroke="#797979" fill="none" />
  <path d="M 1027.85714285714 674.5  L 1031.71428571429 678.357142857143  L 1038.14285714286 669.357142857143  " stroke-width="3.85714285714286" stroke="#797979" fill="none" />
</svg>