<?xml version="1.0" encoding="utf-8"?>
<svg version="1.1" xmlns:xlink="http://www.w3.org/1999/xlink" width="18px" height="18px" viewBox="464 522.5  18 18" xmlns="http://www.w3.org/2000/svg">
  <path d="M 464.5 526.5  A 3.5 3.5 0 0 1 468 523 L 478 523  A 3.5 3.5 0 0 1 481.5 526.5 L 481.5 536.5  A 3.5 3.5 0 0 1 478 540 L 468 540  A 3.5 3.5 0 0 1 464.5 536.5 L 464.5 526.5  Z " fill-rule="nonzero" fill="#ffffff" stroke="none" />
  <path d="M 464.5 526.5  A 3.5 3.5 0 0 1 468 523 L 478 523  A 3.5 3.5 0 0 1 481.5 526.5 L 481.5 536.5  A 3.5 3.5 0 0 1 478 540 L 468 540  A 3.5 3.5 0 0 1 464.5 536.5 L 464.5 526.5  Z " stroke-width="1" stroke="#797979" fill="none" />
</svg>