<?xml version="1.0" encoding="utf-8"?>
<svg version="1.1" xmlns:xlink="http://www.w3.org/1999/xlink" width="18px" height="18px" viewBox="1024 567.5  18 18" xmlns="http://www.w3.org/2000/svg">
  <path d="M 1024.5 571.5  A 3.5 3.5 0 0 1 1028 568 L 1038 568  A 3.5 3.5 0 0 1 1041.5 571.5 L 1041.5 581.5  A 3.5 3.5 0 0 1 1038 585 L 1028 585  A 3.5 3.5 0 0 1 1024.5 581.5 L 1024.5 571.5  Z " fill-rule="nonzero" fill="#ffffff" stroke="none" />
  <path d="M 1024.5 571.5  A 3.5 3.5 0 0 1 1028 568 L 1038 568  A 3.5 3.5 0 0 1 1041.5 571.5 L 1041.5 581.5  A 3.5 3.5 0 0 1 1038 585 L 1028 585  A 3.5 3.5 0 0 1 1024.5 581.5 L 1024.5 571.5  Z " stroke-width="1" stroke="#797979" fill="none" />
</svg>