<?xml version="1.0" encoding="utf-8"?>
<svg version="1.1" xmlns:xlink="http://www.w3.org/1999/xlink" width="18px" height="18px" viewBox="847 469.5  18 18" xmlns="http://www.w3.org/2000/svg">
  <path d="M 847.5 473.5  A 3.5 3.5 0 0 1 851 470 L 861 470  A 3.5 3.5 0 0 1 864.5 473.5 L 864.5 483.5  A 3.5 3.5 0 0 1 861 487 L 851 487  A 3.5 3.5 0 0 1 847.5 483.5 L 847.5 473.5  Z " fill-rule="nonzero" fill="#ffffff" stroke="none" />
  <path d="M 847.5 473.5  A 3.5 3.5 0 0 1 851 470 L 861 470  A 3.5 3.5 0 0 1 864.5 473.5 L 864.5 483.5  A 3.5 3.5 0 0 1 861 487 L 851 487  A 3.5 3.5 0 0 1 847.5 483.5 L 847.5 473.5  Z " stroke-width="1" stroke="#797979" fill="none" />
  <path d="M 850.857142857143 478.5  L 854.714285714286 482.357142857143  L 861.142857142857 473.357142857143  " stroke-width="3.85714285714286" stroke="#797979" fill="none" />
</svg>