<?xml version="1.0" encoding="utf-8"?>
<svg version="1.1" xmlns:xlink="http://www.w3.org/1999/xlink" width="18px" height="18px" viewBox="847 567.5  18 18" xmlns="http://www.w3.org/2000/svg">
  <path d="M 847.5 571.5  A 3.5 3.5 0 0 1 851 568 L 861 568  A 3.5 3.5 0 0 1 864.5 571.5 L 864.5 581.5  A 3.5 3.5 0 0 1 861 585 L 851 585  A 3.5 3.5 0 0 1 847.5 581.5 L 847.5 571.5  Z " fill-rule="nonzero" fill="#f0f0f0" stroke="none" />
  <path d="M 847.5 571.5  A 3.5 3.5 0 0 1 851 568 L 861 568  A 3.5 3.5 0 0 1 864.5 571.5 L 864.5 581.5  A 3.5 3.5 0 0 1 861 585 L 851 585  A 3.5 3.5 0 0 1 847.5 581.5 L 847.5 571.5  Z " stroke-width="1" stroke="#797979" fill="none" />
</svg>