<?xml version="1.0" encoding="utf-8"?>
<svg version="1.1" xmlns:xlink="http://www.w3.org/1999/xlink" width="18px" height="18px" viewBox="464 424.5  18 18" xmlns="http://www.w3.org/2000/svg">
  <path d="M 464.5 428.5  A 3.5 3.5 0 0 1 468 425 L 478 425  A 3.5 3.5 0 0 1 481.5 428.5 L 481.5 438.5  A 3.5 3.5 0 0 1 478 442 L 468 442  A 3.5 3.5 0 0 1 464.5 438.5 L 464.5 428.5  Z " fill-rule="nonzero" fill="#ffffff" stroke="none" />
  <path d="M 464.5 428.5  A 3.5 3.5 0 0 1 468 425 L 478 425  A 3.5 3.5 0 0 1 481.5 428.5 L 481.5 438.5  A 3.5 3.5 0 0 1 478 442 L 468 442  A 3.5 3.5 0 0 1 464.5 438.5 L 464.5 428.5  Z " stroke-width="1" stroke="#797979" fill="none" />
</svg>