<?xml version="1.0" encoding="utf-8"?>
<svg version="1.1" xmlns:xlink="http://www.w3.org/1999/xlink" width="18px" height="18px" viewBox="464 326.5  18 18" xmlns="http://www.w3.org/2000/svg">
  <path d="M 464.5 330.5  A 3.5 3.5 0 0 1 468 327 L 478 327  A 3.5 3.5 0 0 1 481.5 330.5 L 481.5 340.5  A 3.5 3.5 0 0 1 478 344 L 468 344  A 3.5 3.5 0 0 1 464.5 340.5 L 464.5 330.5  Z " fill-rule="nonzero" fill="#ffffff" stroke="none" />
  <path d="M 464.5 330.5  A 3.5 3.5 0 0 1 468 327 L 478 327  A 3.5 3.5 0 0 1 481.5 330.5 L 481.5 340.5  A 3.5 3.5 0 0 1 478 344 L 468 344  A 3.5 3.5 0 0 1 464.5 340.5 L 464.5 330.5  Z " stroke-width="1" stroke="#797979" fill="none" />
  <path d="M 467.857142857143 335.5  L 471.714285714286 339.357142857143  L 478.142857142857 330.357142857143  " stroke-width="3.85714285714286" stroke="#797979" fill="none" />
</svg>