<?xml version="1.0" encoding="utf-8"?>
<svg version="1.1" xmlns:xlink="http://www.w3.org/1999/xlink" width="18px" height="18px" viewBox="493 469.5  18 18" xmlns="http://www.w3.org/2000/svg">
  <path d="M 493.5 473.5  A 3.5 3.5 0 0 1 497 470 L 507 470  A 3.5 3.5 0 0 1 510.5 473.5 L 510.5 483.5  A 3.5 3.5 0 0 1 507 487 L 497 487  A 3.5 3.5 0 0 1 493.5 483.5 L 493.5 473.5  Z " fill-rule="nonzero" fill="#ffffff" stroke="none" />
  <path d="M 493.5 473.5  A 3.5 3.5 0 0 1 497 470 L 507 470  A 3.5 3.5 0 0 1 510.5 473.5 L 510.5 483.5  A 3.5 3.5 0 0 1 507 487 L 497 487  A 3.5 3.5 0 0 1 493.5 483.5 L 493.5 473.5  Z " stroke-width="1" stroke="#797979" fill="none" />
</svg>